<svg width="40" height="40" viewBox="0 0 40 40" fill="none" xmlns="http://www.w3.org/2000/svg">
<path d="M20 36C28.8366 36 36 28.8366 36 20C36 11.1634 28.8366 4 20 4C11.1634 4 4 11.1634 4 20C4 28.8366 11.1634 36 20 36Z" fill="#F36B7F" stroke="#F36B7F" stroke-width="8"/>
<path fill-rule="evenodd" clip-rule="evenodd" d="M12.4245 10.726L11.3996 8.19206C11.3506 8.07357 11.2338 7.99733 11.1056 8.00007H8.31096C8.22928 7.99927 8.15063 8.03096 8.09232 8.08815C8.034 8.14535 8.00079 8.22337 8 8.30506C8.00053 8.38692 8.03362 8.4652 8.09197 8.52261C8.15031 8.58002 8.22911 8.61184 8.31096 8.61104H10.8997L11.8495 10.9519C11.8972 11.069 12.0112 11.1453 12.1375 11.1449C12.2392 11.145 12.3344 11.0951 12.3921 11.0114C12.4498 10.9277 12.4627 10.821 12.4265 10.726H12.4245ZM31.6172 11.4889H12.6264C12.3465 11.4889 12.1875 11.6209 12.2675 11.8719L15.1611 20.8635C15.2431 21.1195 15.4611 21.5005 15.6501 21.5005H28.5975C28.7885 21.5005 29.0065 21.2005 29.0865 20.9455L31.9811 11.7809C32.0571 11.5259 31.8971 11.4889 31.6172 11.4889ZM28.5115 20.7695C28.4938 20.8204 28.4697 20.8688 28.4396 20.9135H15.8411C15.7978 20.8419 15.7626 20.7658 15.7361 20.6865L12.9594 12.0759H31.2572L28.5115 20.7695ZM16.0861 29.1164C16.4138 28.3418 17.1768 27.8417 18.0178 27.8502C18.5653 27.8529 19.0893 28.073 19.4745 28.4621C19.8597 28.8513 20.0745 29.3776 20.0716 29.9251C20.0715 30.7662 19.5637 31.5241 18.7859 31.844C18.008 32.1639 17.114 31.9825 16.5223 31.3847C15.9306 30.7869 15.7583 29.8911 16.0861 29.1164ZM16.6434 30.5059C16.8797 31.052 17.423 31.4007 18.0178 31.3881C18.817 31.3787 19.4578 30.7244 19.4506 29.9251C19.4509 29.3301 19.0911 28.7942 18.5403 28.5692C17.9895 28.3442 17.3574 28.475 16.9411 28.9001C16.5247 29.3251 16.4071 29.9599 16.6434 30.5059ZM24.8167 29.1171C25.1442 28.3425 25.9068 27.8421 26.7478 27.8502C27.2954 27.8529 27.8195 28.073 28.2048 28.4621C28.5902 28.8512 28.8052 29.3775 28.8025 29.9251C28.8025 30.7662 28.2948 31.524 27.517 31.8439C26.7393 32.1639 25.8454 31.9827 25.2536 31.3851C24.6618 30.7875 24.4893 29.8918 24.8167 29.1171ZM25.3734 30.5059C25.6097 31.052 26.1529 31.4007 26.7478 31.3881C27.5469 31.3787 28.1878 30.7244 28.1806 29.9251C28.1809 29.3301 27.821 28.7942 27.2702 28.5692C26.7195 28.3442 26.0873 28.475 25.671 28.9001C25.2547 29.3251 25.137 29.9599 25.3734 30.5059ZM14.2113 26.6333H30.0554V26.6283C30.1687 26.6218 30.2762 26.6785 30.3349 26.7757C30.3935 26.8729 30.3935 26.9946 30.3349 27.0918C30.2762 27.189 30.1687 27.2457 30.0554 27.2392H13.8863C13.8044 27.24 13.7256 27.2082 13.6673 27.1508C13.609 27.0934 13.5759 27.0151 13.5753 26.9333C13.5769 26.8587 13.6061 26.7874 13.6573 26.7333C13.5963 26.6513 13.5813 26.5439 13.6173 26.4483L15.1901 22.2695C15.3141 21.8705 15.6421 21.5815 15.973 21.5815C16.0863 21.575 16.1939 21.6318 16.2525 21.729C16.3111 21.8261 16.3111 21.9478 16.2525 22.045C16.1939 22.1422 16.0863 22.1989 15.973 22.1925C15.8735 22.2485 15.8013 22.3428 15.7731 22.4534L15.7671 22.4724L14.2113 26.6333Z" fill="white"/>
</svg>
