<svg width="40" height="40" viewBox="0 0 40 40" fill="none" xmlns="http://www.w3.org/2000/svg">
<path d="M20 36C28.8366 36 36 28.8366 36 20C36 11.1634 28.8366 4 20 4C11.1634 4 4 11.1634 4 20C4 28.8366 11.1634 36 20 36Z" fill="#F36B7F" stroke="#F36B7F" stroke-width="8"/>
<path fill-rule="evenodd" clip-rule="evenodd" d="M24.2481 22.687H16.7519C16.5563 22.6881 16.3962 22.5356 16.3929 22.345V8.34501C16.3945 8.15321 16.5551 7.9989 16.7519 8.00001H24.2481C24.3427 7.99921 24.4337 8.03515 24.5011 8.09988C24.5684 8.1646 24.6066 8.25281 24.6071 8.34501V22.341C24.6066 22.4333 24.5685 22.5216 24.5011 22.5865C24.4338 22.6514 24.3428 22.6875 24.2481 22.687ZM24.0357 8.55001H16.9643V22.137H24.0357V8.55001ZM28.7148 19.588C28.5583 19.5869 28.4303 19.7094 28.4286 19.862C28.4286 23.449 24.8718 26.362 20.5005 26.362C16.1292 26.362 12.5714 23.445 12.5714 19.862C12.5697 19.7094 12.4417 19.5869 12.2852 19.588C12.129 19.5874 12.0017 19.7098 12 19.862C12 23.752 15.8132 26.916 20.5005 26.916C25.1878 26.916 29 23.752 29 19.862C28.9995 19.7888 28.9691 19.7188 28.9156 19.6674C28.8621 19.616 28.7899 19.5875 28.7148 19.588ZM20.7857 31.45H26.3676C26.5234 31.45 26.6497 31.5731 26.6497 31.725C26.6497 31.8769 26.5234 32 26.3676 32H14.6324C14.4766 32 14.3503 31.8769 14.3503 31.725C14.3503 31.5731 14.4766 31.45 14.6324 31.45H20.2143V27.206C20.2234 27.0587 20.3486 26.9437 20.5 26.9437C20.6514 26.9437 20.7766 27.0587 20.7857 27.206V31.45Z" fill="white"/>
</svg>
