<svg width="40" height="40" viewBox="0 0 40 40" fill="none" xmlns="http://www.w3.org/2000/svg">
<path d="M20 36C28.8366 36 36 28.8366 36 20C36 11.1634 28.8366 4 20 4C11.1634 4 4 11.1634 4 20C4 28.8366 11.1634 36 20 36Z" fill="#F36B7F" stroke="#F36B7F" stroke-width="8"/>
<path fill-rule="evenodd" clip-rule="evenodd" d="M16.5867 20.1856H31.7008C31.866 20.1856 32 20.3275 32 20.5026C32 20.6777 31.866 20.8197 31.7008 20.8197H29.207V24.2438C29.207 24.4189 29.073 24.5609 28.9078 24.5609C28.7425 24.5609 28.6085 24.4189 28.6085 24.2438V20.8186H26.813V23.5928C26.813 23.7679 26.679 23.9099 26.5138 23.9099C26.3485 23.9099 26.2145 23.7679 26.2145 23.5928V20.8186H24.3961V24.2438C24.3961 24.4189 24.2621 24.5609 24.0968 24.5609C23.9316 24.5609 23.7976 24.4189 23.7976 24.2438V20.8155H16.5867H16.5548C16.3976 23.1743 14.5443 25.002 12.3124 24.9995C10.7797 25.0244 9.35317 24.1722 8.57993 22.7699C7.80669 21.3675 7.80669 19.6325 8.57993 18.2301C9.35317 16.8278 10.7797 15.9756 12.3124 16.0005C14.5441 15.9996 16.3966 17.8271 16.5548 20.1856H16.5867ZM10.92 24.0727C12.2873 24.6697 13.8594 24.3375 14.9059 23.2303C15.5922 22.5082 15.9772 21.5253 15.9752 20.5005C15.9686 18.3626 14.3303 16.6335 12.3124 16.6346C11.3431 16.6324 10.4127 17.0384 9.72609 17.7633C9.03947 18.4882 8.65294 19.4725 8.65162 20.4995C8.65797 22.0664 9.55262 23.4756 10.92 24.0727Z" fill="white"/>
</svg>
