<svg width="40" height="40" viewBox="0 0 40 40" fill="none" xmlns="http://www.w3.org/2000/svg">
<path d="M20 36C28.8366 36 36 28.8366 36 20C36 11.1634 28.8366 4 20 4C11.1634 4 4 11.1634 4 20C4 28.8366 11.1634 36 20 36Z" fill="#F36B7F" stroke="#F36B7F" stroke-width="8"/>
<path fill-rule="evenodd" clip-rule="evenodd" d="M30.8 12H9.20001C8.88042 12.0013 8.57445 12.1264 8.34941 12.3478C8.12436 12.5692 7.99868 12.8687 8.00001 13.1805V26.8195C7.99868 27.1313 8.12436 27.4308 8.34941 27.6522C8.57445 27.8736 8.88042 27.9987 9.20001 28H30.8C31.1196 27.9987 31.4255 27.8736 31.6506 27.6522C31.8756 27.4308 32.0013 27.1313 32 26.8195V13.1805C32.0013 12.8687 31.8756 12.5692 31.6506 12.3478C31.4255 12.1264 31.1196 12.0013 30.8 12ZM21.177 20.5854L27.391 16.6966L31.4 19.08V26.718L21.177 20.5854ZM30.8 12.5902H9.20001C9.04001 12.5902 8.88663 12.6526 8.77397 12.7634C8.6613 12.8742 8.59868 13.0244 8.60001 13.1805V24.3385L17.612 18.6341C17.7093 18.5748 17.8327 18.5748 17.93 18.6341L20.61 20.2449C20.6196 20.2359 20.63 20.2278 20.641 20.2205L27.226 16.0976C27.3228 16.0391 27.4452 16.0391 27.542 16.0976L31.4 18.3902V13.1805C31.4013 13.0244 31.3387 12.8742 31.226 12.7634C31.1134 12.6526 30.96 12.5902 30.8 12.5902ZM9.20001 27.4146C8.86864 27.4146 8.60001 27.1526 8.60001 26.8293V25.04L17.778 19.2371L31.178 27.2771C31.0723 27.3646 30.9386 27.4133 30.8 27.4146H9.20001ZM23.9 16.3493C24.454 16.354 24.9561 16.0321 25.1715 15.5341C25.3868 15.0362 25.2729 14.4606 24.8829 14.0768C24.4929 13.6929 23.904 13.5767 23.3917 13.7824C22.8794 13.9881 22.545 14.4751 22.545 15.0156C22.5434 15.3678 22.6853 15.7061 22.9394 15.9562C23.1935 16.2063 23.539 16.3477 23.9 16.3493ZM23.9 14.2732C24.2089 14.2704 24.489 14.4499 24.6091 14.7276C24.7292 15.0052 24.6655 15.3262 24.4479 15.5401C24.2304 15.7541 23.9019 15.8187 23.6163 15.7038C23.3308 15.5888 23.1446 15.317 23.145 15.0156C23.1439 14.6074 23.4816 14.2753 23.9 14.2732Z" fill="white"/>
</svg>
