<svg width="40" height="40" viewBox="0 0 40 40" fill="none" xmlns="http://www.w3.org/2000/svg">
<path d="M20 36C28.8366 36 36 28.8366 36 20C36 11.1634 28.8366 4 20 4C11.1634 4 4 11.1634 4 20C4 28.8366 11.1634 36 20 36Z" fill="#F36B7F" stroke="#F36B7F" stroke-width="8"/>
<path fill-rule="evenodd" clip-rule="evenodd" d="M31.355 15.725L31.534 16.032C32.4941 17.6827 31.9232 19.7915 30.258 20.7454L22.2079 25.3479C20.541 26.3006 18.4098 25.7355 17.4468 24.0854L17.2678 23.7784C16.3081 22.1266 16.8804 20.0173 18.5468 19.064L19.2588 18.657C19.3526 18.604 19.4679 18.6045 19.5612 18.6584C19.6545 18.7123 19.7117 18.8114 19.7112 18.9183C19.7107 19.0253 19.6526 19.1238 19.5588 19.1769L18.8468 19.5839C17.4715 20.3725 17.0001 22.1144 17.7928 23.4784L17.9718 23.7844C18.7679 25.1467 20.5275 25.6136 21.9049 24.828L29.955 20.2255C31.3302 19.4373 31.8016 17.6957 31.009 16.332L30.83 16.0251C30.0336 14.665 28.2767 14.1984 26.8999 14.9814L25.0999 16.0053C25.0061 16.0583 24.8909 16.0578 24.7976 16.0039C24.7043 15.95 24.6471 15.851 24.6476 15.744C24.648 15.637 24.7061 15.5385 24.7999 15.4854L26.5939 14.4615C28.2613 13.5107 30.3913 14.076 31.355 15.725ZM13.0998 26.0173L14.8998 24.9914C15.0442 24.9077 15.2298 24.9558 15.3143 25.0989C15.3988 25.2419 15.3502 25.4256 15.2058 25.5093L13.4058 26.5371C11.7389 27.4899 9.60768 26.9247 8.64473 25.2746L8.46573 24.9677C7.50612 23.3165 8.07686 21.2079 9.74175 20.2533L17.7918 15.6508C19.4588 14.7022 21.5866 15.2676 22.5499 16.9153L22.7289 17.2222C23.6896 18.8729 23.1186 20.9821 21.4529 21.9356L20.7409 22.3436C20.5956 22.4256 20.4107 22.3755 20.3279 22.2317C20.245 22.0879 20.2956 21.9048 20.4409 21.8227L21.1579 21.4148C22.5331 20.6266 23.0046 18.8849 22.2119 17.5213L22.0329 17.2143C21.2365 15.8525 19.4773 15.3856 18.0998 16.1706L10.0447 20.7731C8.66942 21.5617 8.19797 23.3037 8.99074 24.6676L9.16974 24.9736C9.9657 26.3341 11.7231 26.8008 13.0998 26.0173Z" fill="white"/>
</svg>
