<svg width="40" height="40" viewBox="0 0 40 40" fill="none" xmlns="http://www.w3.org/2000/svg">
<path d="M20 36C28.8366 36 36 28.8366 36 20C36 11.1634 28.8366 4 20 4C11.1634 4 4 11.1634 4 20C4 28.8366 11.1634 36 20 36Z" fill="#F36B7F" stroke="#F36B7F" stroke-width="8"/>
<path fill-rule="evenodd" clip-rule="evenodd" d="M20.1195 8.057L31.779 16.875C31.9102 16.9785 31.9394 17.1663 31.8457 17.305C31.7933 17.3853 31.7043 17.4338 31.6087 17.434C31.5475 17.4341 31.4881 17.4141 31.4394 17.377L19.9502 8.687L8.46111 17.377C8.39865 17.4243 8.31941 17.4435 8.24235 17.4298C8.16529 17.4162 8.09735 17.3709 8.0548 17.305C7.96111 17.1663 7.99026 16.9785 8.12153 16.875L19.7809 8.057C19.8811 7.981 20.0194 7.981 20.1195 8.057ZM27.9957 17.589C27.9159 17.5911 27.8403 17.6251 27.7857 17.6836C27.7311 17.742 27.702 17.8199 27.7049 17.9V30.459C27.7116 30.6982 27.6231 30.9303 27.4591 31.1039C27.295 31.2774 27.0688 31.3782 26.8306 31.384H23.4447V22.541C23.4447 21.691 22.7904 21 21.9868 21H17.9117C17.1081 21 16.4538 21.691 16.4538 22.541V31.341C16.4528 31.354 16.4528 31.367 16.4538 31.38H13.0679C12.8297 31.3742 12.6035 31.2734 12.4394 31.0999C12.2753 30.9263 12.1869 30.6942 12.1936 30.455V17.9C12.1999 17.7914 12.1458 17.6883 12.0531 17.632C11.9603 17.5758 11.8442 17.5758 11.7515 17.632C11.6588 17.6883 11.6047 17.7914 11.611 17.9V30.459C11.611 31.309 12.2643 32 13.0679 32H26.8306C27.6342 32 28.2875 31.309 28.2875 30.459V17.9C28.2905 17.8197 28.2612 17.7417 28.2064 17.6832C28.1516 17.6248 28.0757 17.5908 27.9957 17.589ZM17.0414 31.345V22.545C17.0349 22.3059 17.1235 22.0742 17.2876 21.9008C17.4516 21.7274 17.6776 21.6268 17.9157 21.621H21.9927C22.2308 21.6268 22.4568 21.7274 22.6209 21.9008C22.7849 22.0742 22.8735 22.3059 22.8671 22.545V31.388H17.0334C17.0338 31.3803 17.0347 31.3734 17.0355 31.3669L17.0355 31.3669C17.0365 31.3592 17.0374 31.3521 17.0374 31.345H17.0414Z" fill="white"/>
</svg>
