<svg xmlns="http://www.w3.org/2000/svg" width="112" height="112" viewBox="0 0 112 112" fill="none">
<path d="M56 112C86.9279 112 112 86.9279 112 56C112 25.0721 86.9279 0 56 0C25.0721 0 0 25.0721 0 56C0 86.9279 25.0721 112 56 112Z" fill="#81B5A5"/>
<path fill-rule="evenodd" clip-rule="evenodd" d="M77.2485 77.2626C77.2335 77.2826 77.2185 77.3026 77.201 77.3202C77.1829 77.3374 77.1636 77.3533 77.1433 77.3678C65.3767 88.9443 46.4766 88.8673 34.8046 77.1954C23.1327 65.5234 23.0557 46.6233 34.6322 34.8567C34.6603 34.8152 34.696 34.7795 34.7374 34.7515C46.4647 23.0828 65.4161 23.0828 77.1433 34.7515C77.1636 34.7659 77.1829 34.7818 77.201 34.799C77.2111 34.8092 77.2196 34.8202 77.2284 34.8316L77.2284 34.8316C77.2347 34.8399 77.2412 34.8483 77.2485 34.8567C88.9171 46.5839 88.9171 65.5353 77.2485 77.2626ZM70.8556 69.9127L76.6573 75.7144C87.1104 64.6959 87.1104 47.4233 76.6573 36.4048L70.8556 42.2266C78.1025 50.0326 78.1025 62.1067 70.8556 69.9127ZM42.6184 42.7376C48.0067 37.349 56.1105 35.7369 63.1509 38.653C70.1913 41.5691 74.7818 48.4392 74.7818 56.0596C74.7818 63.68 70.1913 70.5501 63.1509 73.4662C56.1105 76.3823 48.0067 74.7702 42.6184 69.3816C39.0531 65.8655 37.0459 61.067 37.0459 56.0596C37.0459 51.0522 39.0531 46.2537 42.6184 42.7376ZM69.7934 41.1444L75.5952 35.3426C64.5767 24.8896 47.3041 24.8896 36.2856 35.3426L42.0974 41.1444C49.8992 33.8893 61.9791 33.8893 69.7809 41.1444H69.7934ZM27.3825 56.0596C27.3617 48.7416 30.1712 41.699 35.2234 36.4048L41.0227 42.2066H41.0377C33.7884 50.0116 33.7884 62.0876 41.0377 69.8926H41.0227L35.2234 75.7144C30.1712 70.4202 27.3617 63.3776 27.3825 56.0596ZM42.0873 70.9748L36.2856 76.7766H36.2756C47.2941 87.2296 64.5667 87.2296 75.5852 76.7766L69.7834 70.9748H69.7709C61.9691 78.2299 49.8892 78.2299 42.0873 70.9748Z" fill="white"/>
</svg>