<svg xmlns="http://www.w3.org/2000/svg" width="112" height="112" viewBox="0 0 112 112" fill="none">
<path d="M56 112C86.9279 112 112 86.9279 112 56C112 25.0721 86.9279 0 56 0C25.0721 0 0 25.0721 0 56C0 86.9279 25.0721 112 56 112Z" fill="#F8CF61"/>
<path fill-rule="evenodd" clip-rule="evenodd" d="M64.67 36.5299H82.25C84.3211 36.5299 86 38.2242 86 40.3143V75.9634C86 78.0535 84.3211 79.7478 82.25 79.7478H29.75C27.6789 79.7478 26 78.0535 26 75.9634V40.3143C26 38.2242 27.6789 36.5299 29.75 36.5299H47.33V33.7547C47.33 28.9224 51.2117 25.0051 56 25.0051C60.7883 25.0051 64.67 28.9224 64.67 33.7547V36.5299ZM56 26.5189C52.0401 26.5189 48.83 29.7585 48.83 33.7547V36.5299H63.17V33.7547C63.17 29.7585 59.9599 26.5189 56 26.5189ZM84.5 75.9634C84.5 77.2174 83.4926 78.234 82.25 78.234H29.75C28.5074 78.234 27.5 77.2174 27.5 75.9634V40.3143C27.5 39.0603 28.5074 38.0437 29.75 38.0437H82.25C83.4926 38.0437 84.5 39.0603 84.5 40.3143V75.9634ZM77.6175 52.5505H34.5C34.0858 52.5505 33.75 52.8894 33.75 53.3074C33.75 53.7254 34.0858 54.0643 34.5 54.0643H48.5625V60.6391C48.5625 61.0571 48.8983 61.396 49.3125 61.396H62.7975C63.2117 61.396 63.5475 61.0571 63.5475 60.6391V54.0643H77.6175C78.0317 54.0643 78.3675 53.7254 78.3675 53.3074C78.3675 52.8894 78.0317 52.5505 77.6175 52.5505ZM62.0475 59.8822H50.0625V54.0643H62.0475V59.8822Z" fill="white"/>
</svg>