<svg xmlns="http://www.w3.org/2000/svg" width="112" height="112" viewBox="0 0 112 112" fill="none">
<path d="M56 112C86.9279 112 112 86.9279 112 56C112 25.0721 86.9279 0 56 0C25.0721 0 0 25.0721 0 56C0 86.9279 25.0721 112 56 112Z" fill="#9FBFFF"/>
<path fill-rule="evenodd" clip-rule="evenodd" d="M86.3043 39.2811C67.3405 30.9079 45.6595 30.9079 26.6957 39.2811C26.51 39.3616 26.3648 39.5123 26.2928 39.6994C26.2207 39.8865 26.2278 40.0943 26.3126 40.2762C26.387 40.4563 26.5322 40.599 26.7151 40.6717C26.898 40.7443 27.1029 40.7408 27.283 40.6617C45.8732 32.4543 67.1267 32.4543 85.717 40.6617C85.8089 40.7027 85.9085 40.7239 86.0094 40.7239C86.306 40.7226 86.573 40.5463 86.6874 40.2762C86.7721 40.0943 86.7793 39.8865 86.7072 39.6994C86.6352 39.5123 86.49 39.3616 86.3043 39.2811ZM32.9444 50.413C48.0169 44.199 64.983 44.199 80.0556 50.413C80.2453 50.4892 80.3957 50.6381 80.4722 50.8256C80.5487 51.0132 80.5448 51.2233 80.4614 51.408C80.3906 51.5892 80.249 51.7348 80.0684 51.812C79.8878 51.8892 79.6834 51.8915 79.501 51.8185C64.7834 45.7504 48.2166 45.7504 33.499 51.8185C33.4111 51.8547 33.3169 51.8733 33.2217 51.8732C32.9191 51.8703 32.6487 51.6861 32.5386 51.408C32.4552 51.2233 32.4513 51.0132 32.5278 50.8256C32.6043 50.6381 32.7546 50.4892 32.9444 50.413ZM39.2335 61.607C50.3673 57.4942 62.6327 57.4942 73.7665 61.607C74.1553 61.7523 74.3524 62.1801 74.2076 62.5647C74.1437 62.7486 74.0076 62.8995 73.8298 62.9832C73.652 63.067 73.4475 63.0766 73.2624 63.01C62.4538 59.0167 50.5462 59.0167 39.7376 63.01C39.5525 63.0773 39.3478 63.068 39.1698 62.9842C38.9918 62.9003 38.8557 62.7491 38.7923 62.5647C38.6476 62.1801 38.8447 61.7523 39.2335 61.607ZM56.5 70.0995C53.0215 70.0995 50.1983 72.9528 50.1983 76.4727C50.1983 79.9926 53.0164 82.8458 56.5 82.8458C59.9835 82.8458 62.8016 79.9926 62.8016 76.4727C62.8016 72.9528 59.9785 70.0995 56.5 70.0995ZM56.5 81.3533C54.4878 81.4039 52.6451 80.2465 51.8395 78.4261C51.0339 76.6057 51.426 74.4851 52.8312 73.0629C54.2364 71.6406 56.3746 71.2001 58.239 71.9488C60.1034 72.6976 61.3224 74.4863 61.322 76.4727C61.3529 79.1332 59.1958 81.3164 56.5 81.3533Z" fill="white"/>
</svg>